<svg width="163" height="49" viewBox="0 0 163 49" fill="none" xmlns="http://www.w3.org/2000/svg">
<path d="M21.024 29.9714L21.5982 30.0929L19.5791 36.4834H1.30469V35.8411H2.19233C3.18994 35.8411 3.9037 35.5171 4.33318 34.8687C4.57704 34.4983 4.69875 33.6416 4.69875 32.2984V17.1031C4.69875 15.6328 4.53618 14.7124 4.21146 14.342C3.75895 13.8324 3.08605 13.5778 2.19233 13.5778H1.30469V12.9355H11.9911V13.5778C10.7379 13.5665 9.85896 13.6819 9.35429 13.9252C8.84961 14.1685 8.50403 14.4752 8.31886 14.8456C8.13324 15.216 8.04022 16.1017 8.04022 17.5026V32.2984C8.04022 33.2595 8.13281 33.9192 8.31886 34.2779C8.45796 34.5212 8.67269 34.7008 8.96263 34.8162C9.25257 34.9324 10.1576 34.9897 11.6777 34.9897H13.4008C15.2109 34.9897 16.4815 34.8565 17.2126 34.5902C17.9438 34.3243 18.6106 33.852 19.2139 33.1749C19.8173 32.4979 20.4206 31.4301 21.024 29.9714Z" fill="white"/>
<path d="M39.0809 14.2202V23.5284H44.2677C45.6135 23.5284 46.5128 23.3258 46.9654 22.9207C47.5687 22.3881 47.9052 21.4504 47.9747 20.1076H48.6185V28.3042H47.9747C47.8121 27.1578 47.6496 26.4231 47.4874 26.0987C47.2788 25.6936 46.9362 25.3752 46.4607 25.1436C45.9847 24.9124 45.254 24.7962 44.2677 24.7962H39.0809V32.5586C39.0809 33.6004 39.127 34.2341 39.22 34.4605C39.3126 34.6861 39.4752 34.8661 39.7073 34.9983C39.9395 35.1319 40.3802 35.1983 41.0301 35.1983H45.0332C46.3672 35.1983 47.3362 35.1059 47.9399 34.9203C48.5433 34.7351 49.1236 34.3703 49.6804 33.8264C50.3999 33.109 51.1367 32.0264 51.8908 30.5791H52.5872L50.5507 36.4834H32.3628V35.8411H33.1983C33.7551 35.8411 34.2833 35.7079 34.7823 35.4416C35.1535 35.2564 35.4061 34.9788 35.5395 34.608C35.673 34.2376 35.7395 33.479 35.7395 32.3331V17.0338C35.7395 15.5404 35.5886 14.6201 35.287 14.2726C34.8692 13.8099 34.1728 13.5778 33.1983 13.5778H32.3628V12.9355H50.5507L50.8119 18.0934H50.1329C49.8891 16.8546 49.6196 16.0036 49.3236 15.5404C49.0275 15.0772 48.5898 14.7242 48.0095 14.4813C47.5452 14.3078 46.7271 14.2206 45.5552 14.2206H39.0809V14.2202Z" fill="white"/>
<path d="M77.2576 36.4834L68.1378 16.6685V32.402C68.1378 33.8494 68.2943 34.7524 68.6077 35.1111C69.0367 35.5973 69.7157 35.8406 70.6442 35.8406H71.4797V36.483H63.2649V35.8406H64.1004C65.098 35.8406 65.8061 35.5401 66.2238 34.9376C66.479 34.5672 66.6068 33.7219 66.6068 32.402V17.0164C66.6068 15.9746 66.4907 15.2216 66.2586 14.7588C66.096 14.4231 65.7974 14.1421 65.3623 13.9165C64.9272 13.6906 64.2282 13.5782 63.2649 13.5782V12.9359H69.9483L78.5112 31.3611L86.9351 12.9359H93.6185V13.5782H92.8004C91.791 13.5782 91.0773 13.8792 90.6595 14.4813C90.4039 14.8517 90.2766 15.697 90.2766 17.0168V32.4033C90.2766 33.8507 90.4387 34.7537 90.7639 35.1124C91.1929 35.5986 91.8719 35.8419 92.8004 35.8419H93.6185V36.4843H83.5932V35.8419H84.4287C85.4385 35.8419 86.1461 35.5414 86.5521 34.9389C86.8073 34.5685 86.9351 33.7232 86.9351 32.4033V16.669L77.8322 36.4838H77.2576V36.4834Z" fill="white"/>
<path d="M119.942 28.5996H110.805L109.203 32.3158C108.808 33.2305 108.612 33.9136 108.612 34.3651C108.612 34.7243 108.783 35.04 109.125 35.3115C109.467 35.5839 110.207 35.7604 111.344 35.8415V36.4839H103.912V35.8415C104.898 35.668 105.536 35.4421 105.826 35.164C106.418 34.6084 107.074 33.4795 107.793 31.7775L116.095 12.3968H116.704L124.919 31.9857C125.58 33.5606 126.181 34.5816 126.72 35.0508C127.26 35.5193 128.011 35.783 128.975 35.8407V36.483H119.663V35.8407C120.603 35.7947 121.238 35.6381 121.569 35.3718C121.9 35.1059 122.065 34.7815 122.065 34.3994C122.065 33.8902 121.833 33.0856 121.369 31.9857L119.942 28.5996ZM119.455 27.3144L115.452 17.798L111.344 27.3144H119.455Z" fill="white"/>
<path d="M162.731 36.4834H156.431L148.442 25.4732C147.85 25.4967 147.368 25.5079 146.997 25.5079C146.846 25.5079 146.684 25.5053 146.51 25.4993C146.336 25.4932 146.156 25.4849 145.971 25.4728V32.3149C145.971 33.7969 146.133 34.7173 146.458 35.076C146.899 35.5856 147.56 35.8402 148.442 35.8402H149.364V36.4826H139.252V35.8402H140.14C141.137 35.8402 141.851 35.5162 142.28 34.8678C142.524 34.5091 142.646 33.6581 142.646 32.3149V17.1031C142.646 15.6211 142.483 14.7007 142.159 14.342C141.706 13.8324 141.033 13.5778 140.14 13.5778H139.252V12.9355H147.85C150.356 12.9355 152.204 13.1176 153.393 13.4824C154.582 13.8472 155.592 14.519 156.422 15.4971C157.251 16.4755 157.666 17.6418 157.666 18.9964C157.666 20.4437 157.193 21.6994 156.248 22.7646C155.301 23.8298 153.837 24.5824 151.853 25.0222L156.726 31.7775C157.84 33.3289 158.797 34.3595 159.598 34.8687C160.398 35.3783 161.442 35.7023 162.73 35.8411V36.4834H162.731ZM145.971 24.3794C146.191 24.3794 146.382 24.3824 146.545 24.3885C146.707 24.3946 146.841 24.3972 146.945 24.3972C149.196 24.3972 150.893 23.9109 152.036 22.9385C153.179 21.9661 153.75 20.7269 153.75 19.2223C153.75 17.752 153.289 16.5567 152.366 15.6358C151.444 14.7155 150.222 14.2553 148.703 14.2553C148.029 14.2553 147.119 14.3655 145.97 14.5854V24.3794H145.971Z" fill="white"/>
<path d="M162.731 42.2885H0V49H162.731V42.2885Z" fill="white"/>
<path d="M162.731 0H0V6.72279H162.731V0Z" fill="white"/>
</svg>
